<?xml version="1.0" standalone="no"?>
<svg xmlns="http://www.w3.org/2000/svg" height="1920pt" preserveAspectRatio="xMidYMid meet" viewBox="0 0 1620 1920" width="1620pt">
  <path d="m5085 19176c-39-17-79-55-102-97-15-29-19-65-23-241l-5-207-730-758c-401-417-1177-1223-1724-1791l-994-1032h-116c-237-1-321-28-436-144-39-39-115-134-170-211-109-154-732-935-746-935-18 0-39-61-39-115 0-69 21-103 79-130l41-18v-229-228l1538 2 1537 3 3 228 2 227h519c285 0 680-3 879-7l362-6v-6194-6193h-474-475l-133-147c-312-345-805-890-823-912l-20-23 1005 6c553 3 1599 8 2325 11 1482 6 3409 16 3412 19 1 1-113 157-255 348-141 190-315 425-387 521l-130 176-1202 1h-1203v4885 4885l1060-2 1060-3 2 1308 3 1309 1805-1c993-1 2092-4 2443-8l637-6v-1828-1827l-180-138c-100-76-179-142-176-148 2-6 16-42 31-81 15-38 40-99 55-135 26-60 138-337 265-655l51-130 96-3 95-3 16-78c34-170 92-281 260-495 47-60 100-138 119-174 30-60 33-74 33-152 0-79-3-91-30-136-43-70-79-86-185-82-98 4-172 33-194 77-7 14-16 67-19 116-3 55-12 109-25 140-17 43-24 50-49 53-42 4-123-70-153-139-81-189 21-486 200-583 74-40 142-56 245-56 165 0 254 37 367 151 137 139 211 368 179 555-22 126-86 236-216 368-106 108-155 213-174 371l-7 65h87c60 0 88 4 92 13 3 6 36 91 75 187s86 216 105 265c20 50 76 193 126 319l91 229-52 48c-29 27-57 48-61 49-4 0-40 26-79 58-39 31-100 78-135 104l-63 48v1815 1816l850-1c845-1 851-1 884 20 43 26 70 81 63 127-6 36-44 92-366 548-112 160-236 342-274 405-149 246-220 330-325 378-55 25-64 26-212 24-85-1-562-1-1060-1h-905l-485 251c-267 138-534 277-595 308-60 32-234 122-385 200s-336 174-410 213c-74 38-198 102-275 142s-261 136-410 213c-148 77-529 274-845 437-983 509-1395 722-1670 865-345 179-1242 644-1780 922-234 121-483 250-553 287-127 65-129 67-262 207-74 78-150 149-169 158-41 19-90 20-131 2zm405-806c107-113 300-317 429-453 130-136 237-251 238-255 2-5-480-341-877-611l-20-13v788c0 769 0 788 19 769 10-11 105-112 211-225zm1805-635c237-122 680-352 985-510s618-320 695-360c245-127 644-334 1195-620 294-152 594-308 665-345 72-37 252-131 400-208 149-77 394-204 545-282s397-205 545-282c149-77 275-145 280-150 7-6-305-8-890-4-495 3-1681 8-2635 11s-1903 8-2107 11l-373 7v1270c0 947 3 1286 12 1329 20 96 14 105-349 487-178 187-323 342-323 344 0 3 208-103 463-235 254-132 656-340 892-463zm-2335-1057v-1671l-1567 7c-863 4-1582 10-1599 14l-32 7 227 235c124 129 629 654 1121 1165 1266 1315 1845 1915 1848 1915 1 0 2-752 2-1672zm1318-258-3-340-404 398-404 397 404 280 404 281 3-338c1-186 1-491 0-678zm-644-72c198-194 408-398 465-454l103-100-368-284c-203-156-415-320-471-363l-103-78v815c0 449 3 816 6 816s169-159 368-352zm646-1078v-270h-308c-288 0-310 1-326 18-16 18-2 30 306 270 178 137 324 251 326 251 1 1 2-120 2-269zm-4641-1042 371-448h-795c-437 0-795 2-795 5 0 8 646 813 703 875 27 30 54 65 60 78l11 24 37-43c20-24 204-245 408-491zm1489 517c4-4-879-850-884-848-6 2-699 837-710 854-4 7 260 8 792 3 440-3 800-8 802-9zm1625-5h207v-159-159l-256-293c-141-162-259-294-263-294-9 0-781 901-781 911 0 4 199 4 443 1 243-4 535-7 650-7zm1527-251v-251l-182 227c-101 125-191 238-201 251l-19 24h201 201zm1116 237c6-4-783-893-788-889-5 2-8 206-8 454v449l398-6c218-4 398-7 398-8zm1641-5 311-6-219-255c-121-140-295-344-387-452s-169-197-172-197c-5 0-622 773-698 875l-34 44 444-1c243-1 583-4 755-8zm-3446-34c14-18 175-217 357-444 272-338 332-418 332-443v-30h-510-510v303 304l148 171c81 94 149 170 152 170 3 1 17-14 31-31zm5415 24 151-6-316-381c-392-473-398-480-403-474-37 46-644 780-676 818l-45 52 569-1c313-1 637-4 720-8zm1970-17c-3-8-168-203-366-434l-361-420-158 242c-205 316-347 532-383 586l-30 43 652-2c550-1 650-3 646-15zm1823-24c-61-75-715-819-721-819-6-1-663 806-682 837-6 9 139 12 710 12h717zm-11018-460 371-435-113-2c-63-2-435 0-827 5l-713 7 448 432c246 238 451 431 455 430s174-198 379-437zm11428 345c38-49 83-106 99-125 32-38 482-678 482-686 0-5-691-3-1110 5l-336 6 391 447c214 246 393 446 396 445 4-1 39-42 78-92zm-3485-365 285-435-367-2c-202-2-494 1-649 5l-282 7 357 432c196 238 360 431 365 430 4-1 135-198 291-437zm-3778-11c176-220 321-404 322-410 4-10-519-10-1042 0l-320 6 354 403c194 221 356 402 360 402s151-180 326-401zm1932-54 298-360-322-3c-178-1-471-1-653 0l-331 3 332 387 333 387 22-27c12-15 157-189 321-387zm3587 68c149-184 289-359 313-389l44-54h-652c-371 0-650 4-648 9 6 16 659 771 666 770 4 0 129-151 277-336zm-8508-420c-3-2-54-2-115-1l-110 3 112 128 111 128 3-127c1-70 1-129-1-131zm323-283c0-5-5-10-11-10-5 0-7 5-4 10 3 6 8 10 11 10 2 0 4-4 4-10zm1000-460v-460l-400 367c-255 234-395 370-387 374 6 4 82 46 167 93l155 86h233 232zm7940-1370v-1810h-215-215v1810 1810h215 215zm-8476 1066 437-400-23-21c-18-17-797-701-880-773-17-14-18 25-18 807v822l23-18c13-10 220-198 461-417zm534-1886-3-411-448 418-448 418 73 66c40 37 242 215 448 397l375 331 3-404c1-222 1-589 0-815zm-575-209c207-194 375-356 372-361s-126-91-273-191c-147-101-327-225-400-276s-135-93-138-93c-2 0-4 300-4 667v667l33-30c17-17 202-189 410-383zm575-1641-3-371-440 420c-242 232-441 424-442 429-1 4 194 142 433 307 240 165 439 304 442 310 8 12 13-577 10-1095zm-485-250c342-328 357-344 340-360-57-55-864-770-868-770-3 0-5 370-5 822v823l88-86c48-47 248-240 445-429zm486-1457v-868l-275 280c-152 154-356 363-454 465l-178 186 451 402c249 221 453 402 455 402 1 0 2-390 1-867zm-594-618c224-231 435-447 467-480l58-61-227-209c-125-116-337-312-470-437-133-126-244-228-247-228-4 0-6 414-6 921 0 506 4 919 8 917 4-1 192-192 417-423zm595-1644v-820l-417 425c-230 233-418 428-418 432 0 5 119 119 265 254 146 134 333 308 415 386 83 78 151 141 153 142 1 0 2-369 2-819zm-193-993c-3-9-815-738-821-738-4 0-6 357-5 793v792l414-420c228-231 414-423 412-427zm191-1378-3-401-210 182c-115 100-317 274-447 386-131 113-238 208-238 213 0 4 201 188 448 409l447 402 3-395c1-217 1-575 0-796zm-633-192c182-158 355-309 385-336l55-50-404-398c-222-220-408-400-412-402-5-2-9 333-9 759v763l28-25c15-14 176-154 357-311zm632-1355c-2-2-184-2-404-1l-400 3 401 392 401 393 3-392c1-215 1-393-1-395zm-6157 11687v-240l1535 2 1536 3 2 238 2 237h-1537-1538z" transform="matrix(.1 0 0 -.1 0 1920)" fill="#000000" stroke="none" stroke-width="2" vector-effect="non-scaling-stroke"/>
</svg>
