<?xml version='1.0' encoding='utf-8'?>
<svg xmlns="http://www.w3.org/2000/svg" width="339.77515mm" height="134.93233mm" viewBox="0 0 339.77515 134.93233" version="1.1" id="svg5" xml:space="preserve"><defs id="defs2" /><g id="layer1"><path style="fill:#000000;stroke-width:1" d="m 158.3760000000002 134.60240879999998 c -0.476,-0.1669 -1.105,-0.6261998 -1.398,-1.0207998 -0.521,-0.7021 -0.532,-0.9509 -0.532,-11.7328 v -11.0155 l 0.617,-0.6562 c 0.339,-0.3609 1.025,-0.7698 1.525,-0.9086 1.049,-0.2916 21.948,-0.3138 24.261,-0.026 1.24,0.1546 1.621,0.3259 2.223,0.9991 l 0.726,0.8125 v 10.86 c 0,10.3078 -0.03,10.9011 -0.495,11.6702 -0.332,0.5445 -0.811,0.8982998 -1.46,1.0786998 -1.422,0.3945 -24.323,0.3398 -25.466,-0.061 z m -63.439,-3.1952998 c -1.688,-0.7668 -2.906,-2.6453 -2.911,-4.4914 0,-0.9815 1.289,-3.144 2.305,-3.8616 0.69,-0.4864 2.476,-2.8636 5.873,-7.8146 17.425,-25.4002 21.711,-31.6195 22.386,-32.4805 l 0.76,-0.9686 0.416,1.2228 c 0.553,1.6225 2.12,3.9427 3.441,5.0913 l 1.066,0.9283 -10.037,13.3575 c -16.02,21.3173 -16.332,21.7283 -16.743,22.0519 -0.299,0.2355 -0.353,0.5863 -0.23,1.4832 0.425,3.1049 -1.725,5.9722 -4.465,5.9539 -0.459,0 -1.296,-0.2156 -1.861,-0.4722 z m 147.404,0.069 c -2.005,-1.0976 -2.767,-2.5304 -2.613,-4.9071 l 0.108,-1.6728 -2.442,-3.1766 c -1.343,-1.7471 -7.404,-9.7934 -13.468,-17.8808 -8.44,-11.2549 -10.941,-14.7531 -10.664,-14.9128 0.945,-0.5433 2.082,-1.527 2.808,-2.428 0.92,-1.143 1.992,-3.2986 2.009,-4.0411 0.02,-0.8757 -1.11,-2.4824 17.479,24.8509 3.537,5.201 7.339,10.7966 8.449,12.4347 1.11,1.638 2.373,3.239 2.806,3.5577 2.67,1.9649 2.647,5.9576 -0.04,7.7387 -1.289,0.8529 -3.304,1.052 -4.426,0.4372 z m -97.166,-4.3563 c -1.217,-2.3068 -1.116,-11.6547 0.139,-12.91 0.407,-0.4073 3.835,-0.4978 7.638,-0.2018 l 2.096,0.1631 v 6.6968 6.6967 h -4.819 c -4.331,0 -4.843,-0.045 -5.054,-0.4448 z m 42.148,-6.5383 v -6.994 h 4.948 4.949 l 0.452,1.4613 c 0.593,1.921 0.621,9.4665 0.04,11.2451 l -0.374,1.1436 -5.008,0.069 -5.008,0.069 z m -24.904,-14.4872 v -1.9095 h 8.12 8.12 l 0.157,0.8371 c 0.09,0.4604 0.12,1.2895 0.08,1.8424 l -0.08,1.0053 -8.195,0.067 -8.196,0.067 z m -3.813,-6.7379 v -3.5578 h 1.271 1.271 v 3.5578 3.5577 h -1.271 -1.271 z m 4.066,0 v -3.5578 h 7.879 7.878 v 3.4011 c 0,3.3122 -0.02,3.405 -0.572,3.5543 -0.315,0.084 -3.86,0.1548 -7.878,0.1567 h -7.307 z m 17.451,3.3884 c -0.211,-0.2107 -0.219,-5.5936 -0.01,-6.3744 0.129,-0.4827 0.326,-0.5718 1.267,-0.5718 h 1.114 v 3.5578 3.5577 h -1.102 c -0.606,0 -1.177,-0.076 -1.271,-0.1693 z m -25.53,-8.4752 c -1.863,-0.2581 -3.182,-0.9842 -3.574,-1.9675 -0.153,-0.3831 -0.389,-1.6115 -0.525,-2.7296 -0.323,-2.6601 -1.429,-11.1942 -2.074,-16.0101 -0.506,-3.7726 -0.881,-6.8072 -1.634,-13.2146 -1.65,-14.0325 -1.92,-16.611399 -1.812,-17.309299 0.275,-1.8018 6.594,-10.9546 10.025,-14.5234 1.947,-2.0242 3.893,-2.9563 7.863,-3.7655 8.333,-1.6987 17.975,-0.5597 22.331,2.6377 1.92,1.4091 7.329,8.6395 10.009,13.3778 l 0.854,1.5098 -0.289,3.064499 c -0.576,6.1089 -4.822,40.2799 -5.669,45.621 -0.144,0.903 -0.379,1.785 -0.525,1.9599 -0.145,0.1748 -0.91,0.5662 -1.701,0.8697 -1.41,0.5408 -1.743,0.5534 -16.559,0.6264 -8.317,0.041 -15.84,-0.025 -16.72,-0.1468 z m 51.882,-5.5928 c -2.449,-0.7601 -4.917,-3.4993 -5.445,-6.043 -0.968,-4.6638 1.902,-8.832 6.692,-9.7175 3.681,-0.6805 7.653,1.8406 8.729,5.5409 1.494,5.1428 -2.012,10.0771 -7.37,10.3684 -0.995,0.054 -2.168,-0.013 -2.606,-0.1488 z m -76.107,-0.3292 c -3.071,-1.1491 -4.93,-3.4225 -5.665,-6.928 -0.194,-0.9246 -0.478,-1.8071 -0.632,-1.961 -0.192,-0.1919 -0.28,-2.7818 -0.28,-8.2341 0,-5.0502 -0.09,-7.9542 -0.25,-7.9542 -0.138,0 -1.939,0.3354 -4.003,0.7452 -2.064,0.4099 -6.154,1.2049 -9.089,1.7665 -7.833,1.4988 -26.26,5.0559 -29.395,5.6741 -2.68,0.5287 -2.712,0.5434 -2.854,1.3205 -0.08,0.4322 -0.436,3.073 -0.794,5.8684 -0.358,2.7954 -0.704,5.2625 -0.77,5.4825 -0.69,2.3169 -7.374,3.9565 -13.521,3.3169 -4.614,-0.4801 -7.397,-1.8134 -7.92,-3.7938 -0.244,-0.9264 -1.797,-18.748 -1.797,-20.6254 0,-0.7873 0.105,-0.9947 0.572,-1.1195 1.039,-0.2787 1.433,-0.1685 2.384,0.6657 l 0.94,0.8259 -0.181,-1.5248 c -0.795,-6.6809 -1.106,-11.3086 -0.76,-11.3086 0.09,0 1.194,0.3547 2.457,0.7883 4.521,1.5522 11.731,1.2267 14.503,-0.6548 0.871,-0.5913 0.928,-0.5988 1.167,-0.153 0.169,0.3161 0.121,1.8913 -0.145,4.8392 -0.218,2.4038 -0.342,4.4253 -0.275,4.4921 0.07,0.067 1.992,-0.2936 4.279,-0.801 12.829,-2.8479 39.37,-8.9459 50.289,-11.5549 6.925,-1.6542 13.112,-3.0859 13.749,-3.1816 l 1.16,-0.173899 0.177,1.484399 c 0.998,8.3711 2.44,22.0218 2.44,23.0896 0,0.4721 -0.564,0.7756 -4.002,2.1542 -4.866,1.9509 -5.638,2.3266 -6.29,3.0623 l -0.508,0.5736 0.991,-0.1556 c 0.759,-0.1191 1.158,-0.037 1.704,0.3522 0.876,0.6236 2.179,3.2533 2.399,4.8426 0.189,1.3547 -0.244,3.7554 -0.909,5.0493 -0.604,1.1755 -2.134,2.6043 -3.55,3.3169 -1.412,0.7107 -4.266,0.9207 -5.621,0.4138 z m 2.571,-15.9501 c 0,-0.5825 -0.13,-0.6956 -0.952,-0.8294 -0.525,-0.085 -1.554,-0.084 -2.287,0 -1.248,0.1465 -1.335,0.202 -1.335,0.8542 v 0.6975 l 2.287,-0.024 2.287,-0.024 z m -4.462,-2.6551 c 0.348,-0.263 1.159,-0.3731 2.749,-0.3731 2.22,0 2.253,-0.01 2.086,-0.5718 -0.273,-0.9182 -0.876,-1.2072 -2.517,-1.2061 -2.009,0 -3.192,0.6586 -3.192,1.7742 0,0.8548 0.155,0.9214 0.874,0.3768 z m 140.675,17.6863 c -2.12,-0.3953 -3.179,-0.7627 -4.361,-1.5119 -1.327,-0.8416 -1.569,-1.3776 -1.971,-4.3494 -0.788,-5.8224 -1.354,-9.0304 -1.623,-9.2017 -0.167,-0.1063 -0.448,-0.1949 -0.625,-0.1971 -0.311,-0.01 -21.364,-4.4923 -35.765,-7.625 -17.3,-3.7635 -20.24,-4.3712 -20.395,-4.2159 -0.09,0.091 -0.175,2.8432 -0.187,6.1165 -0.01,3.2734 -0.09,6.0231 -0.181,6.1105 -0.128,0.1274 -5.001,-1.5472 -8.641,-2.9688 -0.671,-0.2622 -0.684,-0.3065 -0.555,-1.9578 0.273,-3.482 2.41,-22.549 2.585,-23.0566 0.21,-0.612299 -0.487,-0.761899 20.766,4.4535 6.43,1.5777 13.749,3.362 16.264,3.9651 2.516,0.603 10.293,2.4681 17.281,4.1444 15.002,3.5986 14.745,3.5451 14.546,3.0265 -0.317,-0.8285 -0.79,-9.3503 -0.533,-9.608 0.173,-0.1729 0.624,-0.056 1.381,0.3567 1.882,1.0268 3.587,1.3072 7.859,1.2924 3.646,-0.012 4.08,-0.066 5.845,-0.712 2.948,-1.0805 3.049,-1.0923 3.049,-0.3542 0,0.977 -1.013,10.884 -1.187,11.6135 l -0.155,0.6479 0.608,-0.54 c 1.286,-1.1439 2.759,-1.4009 3.089,-0.5396 0.154,0.4002 -1.491,21.2466 -1.723,21.8412 -0.414,1.0629 -2.513,2.169 -5.46,2.8782 -1.903,0.4578 -8.218,0.7074 -9.911,0.3916 z m -70.4,-8.7987 c -0.346,-0.1913 -1.18,-0.5353 -1.853,-0.7643 -0.693,-0.236 -1.177,-0.5429 -1.115,-0.7081 0.06,-0.1603 0.422,-1.3779 0.802,-2.7057 0.381,-1.3278 0.731,-2.4537 0.779,-2.5019 0.05,-0.048 1.167,0.2816 2.489,0.7329 l 2.403,0.8204 -0.992,1.3002 c -0.545,0.7151 -1.192,1.9469 -1.438,2.7373 -0.441,1.4183 -0.455,1.4325 -1.075,1.0892 z m -57.438,-1.0444 c -0.327,-0.8775 -1.132,-2.466 -1.812,-3.5784 -0.409,-0.6703 -0.434,-0.826 -0.129,-0.826 0.206,0 1.21,-0.3396 2.231,-0.7549 1.02,-0.4152 1.879,-0.7297 1.909,-0.6989 0.03,0.031 0.367,1.1425 0.747,2.4704 0.381,1.3278 0.74,2.5404 0.798,2.6947 0.06,0.1583 -0.536,0.4708 -1.369,0.7173 -0.81,0.2403 -1.616,0.495 -1.79,0.5661 -0.181,0.074 -0.431,-0.1773 -0.585,-0.5903 z m 70.786,-5.5515 c -1.123,-0.506 -3.113,-0.6802 -4.701,-0.4113 -0.769,0.1301 -1.434,0.2026 -1.478,0.1611 -0.04,-0.042 0,-0.4874 0.09,-0.9909 l 0.172,-0.9154 h 3.369 3.369 l 0.158,0.953 c 0.291,1.7678 0.286,1.7744 -0.981,1.2035 z m -173.187,-15.0316 c -0.35,-0.055 -1.78,-0.2782 -3.177,-0.4967 -12.432,-1.943 -31.548,-5.6937 -34.336,-6.7366 -2.373,-0.8882 -1.944,-1.1054 2.951,-1.492 11.804,-0.9326 17.606,-1.9101 25.716,-4.332899 11.008,-3.2884 13.712,-3.3363 22.148,-0.3919 2.118,0.739099 4.38,1.414299 5.027,1.500299 l 1.176,0.1563 0.16,-1.0048 c 0.709,-4.427899 3.761,-7.359699 7.326,-7.036399 2.681,0.243 5.091,2.3198 5.812,5.0099 0.17,0.629 0.38,1.2271 0.469,1.3291 0.256,0.2963 1.97,-0.2781 2.742,-0.9192 0.698,-0.5797 0.833,-0.5906 10.872,-0.8811 23.774,-0.6878 32.623,-1.0767 38.627,-1.6979 l 3.304,-0.3418 -5.845,0.1127 c -3.215,0.062 -8.19,0.1809 -11.054,0.264 l -5.21,0.1511 -2.578,-1.2747 -2.578,-1.2748 -0.168,1.3431 -0.168,1.343 -2.083,0.1538 c -1.145,0.084 -5.64,0.2304 -9.989,0.324 l -7.907,0.1702 -0.16,-1.1162 c -0.391,-2.7544 -1.195,-13.375 -1.128,-14.9134 l 0.08,-1.7044 0.801,-0.078 c 0.6,-0.058 1.023,0.1175 1.686,0.6988 0.486,0.4271 0.938,0.7766 1.004,0.7766 0.06,0 0.03,-0.5733 -0.08,-1.274 -0.292,-1.8455 -0.863,-10.3777 -0.705,-10.5354 0.07,-0.073 0.821,0.1454 1.661,0.4866 2.266,0.921 4.586,1.2417 7.938,1.0974 2.76,-0.1189 4.57,-0.5295 6.948,-1.577 0.668,-0.2945 0.624,1.747 -0.211,9.6289 l -0.188,1.7655 0.711,-0.5584 c 1.34,-1.0539 2.166,-0.5932 2.166,1.2078 v 1.1564 l 8.322,3.0175 c 19.394,7.0321 34.388,12.7892 34.547,13.2648 0.04,0.1366 -2.749,0.9117 -6.209,1.7224 -3.461,0.810799 -8.161,1.932999 -10.446,2.493799 l -4.153,1.0197 -5.504,-2.2837 c -3.027,-1.256099 -5.915,-2.426299 -6.417,-2.600599 -1.084,-0.3755 -3.346,-0.1046 -19.162,2.293999 -14.863,2.2541 -15.439,2.3288 -15.73,2.0384 -0.14,-0.1403 -1.027,-0.255 -1.971,-0.255 h -1.716 l -0.136,0.8259 c -0.07,0.4543 -0.165,1.1582 -0.201,1.5644 -0.06,0.6085 -0.244,0.7991 -1.067,1.0828 -2.589,0.892 -7.627,0.9871 -10.467,0.1975 -1.532,-0.4262 -1.925,-0.8271 -2.116,-2.1612 l -0.141,-0.9879 -7.115,4.6972 c -3.914,2.5835 -7.516,4.8099 -8.005,4.9474 -0.868,0.2443 -2.791,0.2842 -4.066,0.084 z m 256.668,-0.7931 c -1.539,-0.9406 -8.193,-5.306 -11.182,-7.3356 l -2.413,-1.6396 -0.08,0.966 c -0.109,1.2832 -0.617,1.7859 -2.296,2.2738 -1.709,0.497 -7.117,0.5658 -9.219,0.1172 -1.775,-0.3786 -2.198,-0.8279 -2.3,-2.4433 l -0.08,-1.2689 -1.204,-0.2324 c -0.998,-0.193 -1.356,-0.1501 -2.102,0.2513 -0.896,0.4828 -0.911,0.4821 -6.801,-0.3663 -3.247,-0.4677 -9.734,-1.4791 -14.416,-2.2478 -5.234,-0.859199 -9.394,-1.411599 -10.8,-1.434199 l -2.288,-0.037 -5.972,2.364999 c -4.248,1.6824 -6.192,2.3339 -6.734,2.257 -1.543,-0.2189 -20.084,-4.800899 -20.312,-5.019499 -0.141,-0.1354 0.114,-0.3713 0.635,-0.588 1.257,-0.5221 36.52,-13.1022 40.897,-14.5897 l 3.684,-1.2524 0.127,-1.2172 c 0.174,-1.6688 0.694,-1.9687 2.057,-1.1872 l 1.03,0.5898 -0.15,-1.0981 c -0.483,-3.5485 -0.846,-10.3738 -0.553,-10.3738 0.05,0 0.711,0.2793 1.461,0.6205 2.056,0.9348 4.415,1.2469 8.21,1.0867 3.283,-0.1385 5.096,-0.533 6.441,-1.4017 0.319,-0.2059 0.65,-0.3047 0.735,-0.2195 0.149,0.1491 -0.555,9.0618 -0.854,10.8035 l -0.145,0.8514 1.042,-0.6901 c 0.751,-0.4967 1.223,-0.6449 1.685,-0.5289 0.584,0.1466 0.643,0.2813 0.644,1.4905 0,1.1785 -0.81,11.7085 -1.16,15.0522 l -0.133,1.2706 -6.025,-0.062 c -3.314,-0.034 -7.645,-0.1313 -9.623,-0.2158 -4,-0.1709 -3.888,-0.1105 -3.895,-2.1024 -0.01,-1.0051 0.177,-1.0322 -3.435,0.5096 -2.529,1.0795 -2.556,1.0847 -5.718,1.0965 -1.747,0.01 -6.322,-0.089 -10.165,-0.2119 -3.844,-0.123 -6.927,-0.1571 -6.853,-0.076 0.478,0.5193 17.763,1.3193 39.813,1.8428 4.69,0.1114 7.6,0.2807 7.907,0.4601 1.818,1.0608 2.673,1.4409 2.826,1.2575 0.1,-0.1162 0.38,-0.8856 0.63,-1.7098 0.604,-1.9987 2.239,-3.7743 4.019,-4.3654 2.457,-0.8163 5.415,0.042 6.912,2.0049 0.867,1.1364 1.843,3.3741 2.057,4.7171 l 0.178,1.112099 1.179,-0.1398 c 0.648,-0.077 2.552,-0.6493 4.228,-1.272199 4.972,-1.846 6.766,-2.269 10.166,-2.3963 3.686,-0.1382 5.932,0.2707 12.706,2.3131 5.485,1.653499 9.208,2.504499 13.977,3.194299 3.101,0.4486 5.204,0.6697 13.616,1.4318 1.888,0.171 2.544,0.4418 2.113,0.8726 -0.668,0.6686 -9.552,2.5438 -25.767,5.4391 -10.131,1.8091 -12.739,2.184 -15.153,2.1788 -1.732,-0.01 -2.154,-0.098 -3.144,-0.7034 z m -229.35,-38.094399 c -1.08,-0.1396 -16.177,-2.9028 -24.809,-4.5407 -4,-0.7591 -8.06,-1.6198 -9.021,-1.9127 -3.417,-1.041 -3.025,-1.6036 1.302,-1.8681 6.325,-0.3868 13.924,-1.3422 17.662,-2.2211 0.629,-0.1479 3.18,-0.8352 5.67,-1.5272 10.358,-2.8789 12.568,-2.9196 20.448,-0.3766 1.918,0.6191 4.074,1.1891 4.79,1.2667 l 1.301,0.1412 0.162,-1.1791 c 0.481,-3.5114 3.061,-5.8937 6.383,-5.8937 2.96,0 5.242,1.8462 6.131,4.9602 l 0.477,1.6679 0.889,-0.1628 c 0.489,-0.09 0.998,-0.2683 1.131,-0.3972 0.144,-0.1399 9.059,-0.222 22.109,-0.2037 13.457,0.019 21.33,0.116 20.47,0.2524 -1.709,0.271 -36.15,3.7673 -39.063,3.9656 -1.773,0.1206 -2.278,0.061 -3.351,-0.4015 -1.645,-0.7076 -2.059,-0.6956 -2.059,0.06 0,1.7518 -0.257,2.1555 -1.745,2.7393 -1.225,0.4801 -1.945,0.5636 -4.989,0.5776 -5.032,0.023 -6.734,-0.6578 -6.734,-2.6942 0,-0.5347 -0.06,-0.9722 -0.134,-0.9722 -0.07,0 -2.046,1.2401 -4.384,2.7557 -7.962,5.1623 -9.904,6.2047 -11.365,6.0993 -0.28,-0.02 -0.852,-0.081 -1.271,-0.1352 z m 208.003,-0.065 c -0.573,-0.1765 -6.778,-3.9228 -11.69,-7.0575 -1.048,-0.6691 -1.991,-1.2546 -2.096,-1.3012 -0.105,-0.047 -0.191,0.3251 -0.191,0.8259 0,1.9791 -1.598,2.5642 -6.988,2.5581 -3.35,-0.01 -3.955,-0.07 -4.998,-0.5481 -1.16,-0.5321 -1.19,-0.5744 -1.364,-1.9652 -0.1,-0.7817 -0.293,-1.4214 -0.434,-1.4214 -0.141,0 -0.925,0.3001 -1.742,0.6667 l -1.485,0.6667 -8.966,-0.9423 c -14.144,-1.4866 -20.498,-2.1299 -26.373,-2.6702 -3.005,-0.2764 -6.093,-0.5913 -6.861,-0.6999 -0.769,-0.1087 8.608,-0.2547 20.838,-0.3246 15.904,-0.091 22.381,-0.048 22.744,0.1523 0.28,0.1536 0.932,0.3578 1.448,0.4537 0.931,0.1727 0.942,0.1648 1.103,-0.7876 0.25,-1.4825 0.325,-1.6773 1.123,-2.9364 1.075,-1.6945 2.954,-2.7232 4.967,-2.719 1.906,0.01 3.258,0.5962 4.497,1.9702 1.189,1.3198 1.589,2.1084 1.993,3.927 l 0.324,1.4579 1.04,-0.1481 c 0.572,-0.082 2.558,-0.6542 4.414,-1.2727 8.486,-2.8287 10.916,-2.8252 21.658,0.032 8.348,2.2204 12.246,2.9008 19.567,3.4158 6.942,0.4882 7.618,0.5594 7.779,0.8189 0.09,0.1401 0.05,0.3632 -0.08,0.4956 -0.384,0.3835 -6.574,1.8554 -12.651,3.0082 -26.102,4.9519 -25.771,4.8997 -27.572,4.3454 z" id="path67" /></g></svg>