<?xml version="1.0" encoding="utf-8"?>
<!-- Generator: Adobe Illustrator 26.0.0, SVG Export Plug-In . SVG Version: 6.00 Build 0)  -->
<svg version="1.1" id="Ebene_1" xmlns="http://www.w3.org/2000/svg" xmlns:xlink="http://www.w3.org/1999/xlink" x="0px" y="0px"
	 viewBox="0 0 132.75 62.35" style="enable-background:new 0 0 132.75 62.35;" xml:space="preserve">
<style type="text/css">
	.st0{fill:#004477;}
	.st1{fill:#F3C200;}
</style>
<g>
	<g>
		<rect y="-0.01" class="st0" width="62.36" height="62.36"/>
		<path class="st1" d="M24.16,2.05v21.79c-0.08-0.02-0.44-0.26-1.46-0.26c-0.95,0-2.31,0.95-3.8,0.95c-1.58,0-2.86-1.04-4.28-1.04
			c-0.8,0-1.77,0.4-2.13,0.56v1.97c0.36-0.15,1.33-0.51,2.13-0.51c1.34,0,2.63,1,4.28,1c1.29,0,2.76-0.85,3.8-0.85
			c0.9,0,1.36,0.32,1.46,0.39v1.43c-0.08-0.02-0.44-0.26-1.46-0.26c-0.95,0-2.31,0.95-3.8,0.95c-1.58,0-2.86-1.04-4.28-1.04
			c-0.8,0-1.77,0.4-2.13,0.56v1.96c0.36-0.14,1.33-0.5,2.13-0.5c1.34,0,2.63,1,4.28,1c1.29,0,2.76-0.86,3.8-0.86
			c0.9,0,1.36,0.32,1.46,0.39v4.59h-5.77v0.01l12.02,7.29V2.06h-6.25V2.05z"/>
		<path class="st1" d="M4.47,44.25h6.45c2.16,0,3.6,0.78,3.6,3.1c0,1.8-1.03,2.94-2.78,3.32v0.04c1.94,0.3,2.92,1.05,2.92,3.05
			c0,2.57-1.68,3.72-4.17,3.72H4.47L4.47,44.25L4.47,44.25z M7.93,54.55H9.8c0.84,0,1.37-0.45,1.41-1.14c0-0.83-0.52-1.28-1.32-1.28
			H7.93V54.55z M7.94,49.63h1.55c0.8,0,1.57-0.33,1.57-1.19c0-0.89-0.45-1.27-1.27-1.27H7.94V49.63z"/>
		<path class="st1" d="M18.27,44.25h5.35l3.55,13.22h-3.62l-0.75-2.85h-3.92l-0.71,2.85h-3.51L18.27,44.25z M20.92,46.64h-0.04
			l-1.24,4.96h2.35L20.92,46.64z"/>
		<path class="st1" d="M37.5,52.81c0,3-1.73,4.88-5.25,4.88S27,55.82,27,52.81v-8.55h3.39v8.29c0,1.4,0.86,2.03,1.85,2.03
			c1,0,1.86-0.64,1.86-2.03v-8.29h3.39L37.5,52.81L37.5,52.81z"/>
		<path class="st1" d="M38.43,44.25h8.82v3.24h-5.58v1.78h5.58v3.14h-5.58v1.92h5.58v3.13h-8.82V44.25z"/>
		<path class="st1" d="M48.12,44.25h5.83c2.21,0,4.44,0.36,4.44,3.53c0,2.57-1.69,3.92-3.49,3.92l3.85,5.77h-4.13l-2.99-5.24H51.6
			v5.24h-3.46V44.25H48.12z M51.58,49.99h2.03c0.82,0,1.32-0.59,1.32-1.33c0-1.09-0.66-1.27-1.58-1.27h-1.76v2.6H51.58z"/>
		<path class="st1" d="M38.2,2.05v21.79c0.09-0.02,0.44-0.26,1.46-0.26c0.95,0,2.3,0.95,3.79,0.95c1.58,0,2.87-1.04,4.28-1.04
			c0.8,0,1.77,0.4,2.13,0.56v1.97c-0.36-0.15-1.33-0.51-2.13-0.51c-1.34,0-2.63,1-4.28,1c-1.29,0-2.75-0.85-3.79-0.85
			c-0.9,0-1.36,0.32-1.46,0.39v1.43c0.09-0.02,0.44-0.26,1.46-0.26c0.95,0,2.3,0.95,3.79,0.95c1.58,0,2.87-1.04,4.28-1.04
			c0.8,0,1.77,0.4,2.13,0.56v1.96c-0.36-0.14-1.33-0.5-2.13-0.5c-1.34,0-2.63,1-4.28,1c-1.29,0-2.75-0.86-3.79-0.86
			c-0.9,0-1.36,0.32-1.46,0.39v4.59h5.77v0.01l-12.02,7.29V2.06h6.25V2.05z"/>
	</g>
	<g>
		<path class="st0" d="M78.38,54.81c-1.1,2.26-2.9,2.97-4.91,2.97c-3.81,0-5.64-3.29-5.64-6.96c0-4.64,2.86-6.89,5.71-6.89
			c1.71,0,3.24,0.39,4.38,1.71v3.68c-0.89-1.28-2.05-2.05-3.63-2.05c-2.35,0-3.11,1.89-3.11,3.88c0,1.85,0.62,3.7,2.54,3.7
			c0.55,0,1-0.14,1.32-0.46v-3.67h3.34V54.81z"/>
		<path class="st0" d="M79.76,46.37h3.34v2.87h0.04c0.25-1.48,0.92-3.19,2.74-3.19c0.59,0,1.09,0.14,1.48,0.35v4.16
			c-0.32-0.53-1.05-0.85-1.81-0.85c-1.46,0-2.23,1.26-2.23,2.87v4.88h-3.56V46.37z"/>
		<path class="st0" d="M94.8,55.05h-0.03c-0.68,1.92-1.89,2.72-3.45,2.72c-1.78,0-3.04-0.96-3.04-3.43v-7.97h3.56v6.42
			c0,0.98,0.25,1.64,1.25,1.64c1.1,0,1.51-1.07,1.51-2.31v-5.75h3.56v11.08h-3.35L94.8,55.05L94.8,55.05z"/>
		<path class="st0" d="M99.79,46.37h3.24v2.28h0.03c0.75-1.9,1.55-2.6,3.38-2.6c3.36,0,3.65,3.43,3.65,5.48
			c0,5.07-2.31,6.24-4.15,6.24c-1.42,0-2.29-1-2.67-2.15h-0.03v4.5h-3.45L99.79,46.37L99.79,46.37z M104.91,49.4
			c-1.51,0-1.87,1.44-1.87,2.67c0,1.21,0.44,2.58,1.83,2.58c1.23,0,1.76-1.28,1.76-2.62C106.64,50.8,106.43,49.4,104.91,49.4z"/>
		<path class="st0" d="M111.38,46.37h3.24v2.28h0.04c0.75-1.9,1.55-2.6,3.38-2.6c3.36,0,3.65,3.43,3.65,5.48
			c0,5.07-2.31,6.24-4.15,6.24c-1.42,0-2.29-1-2.67-2.15h-0.04v4.5h-3.45L111.38,46.37L111.38,46.37z M116.5,49.4
			c-1.51,0-1.87,1.44-1.87,2.67c0,1.21,0.45,2.58,1.83,2.58c1.23,0,1.76-1.28,1.76-2.62C118.22,50.8,118.01,49.4,116.5,49.4z"/>
		<path class="st0" d="M131.73,56.23c-0.76,0.96-2.37,1.55-3.79,1.55c-3.81,0-5.39-2.15-5.39-5.78c0-3.59,1.41-5.94,5.34-5.94
			c3.08,0,4.47,2.06,4.47,5.11c0,0.64-0.04,1.3-0.12,1.94h-6.5c0.25,1.35,1.34,2.08,2.79,2.08c1.32,0,2.49-0.53,3.2-1.57V56.23z
			 M129.97,50.61c-0.09-1.12-1.03-1.64-2.15-1.64c-1.03,0-1.92,0.68-2.03,1.64H129.97z"/>
	</g>
</g>
</svg>
