<?xml version="1.0" encoding="UTF-8" standalone="no"?>
<svg
   width="1720.1592"
   height="299.0304"
   viewBox="0 0 1720.1592 299.0304"
   fill="none"
   version="1.1"
   id="svg202"
   xmlns="http://www.w3.org/2000/svg"
   xmlns:svg="http://www.w3.org/2000/svg">
  <g
     clip-path="url(#clip0_525_76740)"
     id="g27"
     transform="matrix(5.4,0,0,5.4,0,-1191.9528)">
    <mask
       id="mask0_525_76740"
       maskUnits="userSpaceOnUse"
       x="122"
       y="134"
       width="41"
       height="29">
      <path
         d="m 152.004,135.175 c -5.62,3.116 -12.31,6.499 -16.681,8.28 -5.352,2.226 -9.634,3.472 -12.934,4.185 1.338,5.964 3.121,11.929 5.084,14.333 0.178,0.267 0.357,0.445 0.625,0.712 5.53,-1.335 12.578,-3.383 21.052,-6.855 4.103,-1.602 8.742,-3.472 13.737,-5.698 0,0 -1.873,-15.669 -8.385,-15.669 -0.803,0 -1.605,0.267 -2.498,0.712 z"
         fill="#ffffff"
         id="path1" />
    </mask>
    <g
       mask="url(#mask0_525_76740)"
       id="g2" />
    <mask
       id="mask1_525_76740"
       maskUnits="userSpaceOnUse"
       x="112"
       y="122"
       width="81"
       height="39">
      <path
         d="m 171.185,123.603 c -7.226,4.985 -11.151,7.567 -26.672,15.58 -20.071,10.416 -29.17,8.991 -29.17,8.991 0,0 -5.352,9.171 -0.089,11.485 13.826,5.965 71.363,-24.483 76.537,-28.222 4.192,-2.937 -7.137,-9.259 -15.343,-9.259 -2.052,0.09 -3.836,0.446 -5.263,1.425 z"
         fill="#ffffff"
         id="path3" />
    </mask>
    <g
       mask="url(#mask1_525_76740)"
       id="g4" />
    <mask
       id="mask2_525_76740"
       maskUnits="userSpaceOnUse"
       x="145"
       y="73"
       width="84"
       height="83">
      <path
         d="m 167.615,87.1899 c 0,0 10.795,-13.8883 30.241,13.9771 15.878,22.703 14.808,37.392 10.169,43.09 -9.902,11.93 -40.766,-9.081 -58.428,-48.1642 l -4.283,1.7803 c 0,0 30.865,58.8479 65.833,58.0469 31.132,-0.801 10.973,-47.007 9.545,-50.123 -1.427,-3.116 -15.432,-29.0236 -29.973,-32.2286 -1.248,-0.2668 -2.408,-0.3561 -3.568,-0.3561 -12.221,-0.0887 -19.536,13.9776 -19.536,13.9776 z"
         fill="#ffffff"
         id="path5" />
    </mask>
    <g
       mask="url(#mask2_525_76740)"
       id="g6" />
    <mask
       id="mask3_525_76740"
       maskUnits="userSpaceOnUse"
       x="146"
       y="100"
       width="16"
       height="17">
      <path
         d="m 146.74,100.367 c 1.874,3.205 5.352,9.081 10.17,15.935 l 4.192,0.268 c -3.389,-4.986 -6.601,-10.505 -9.545,-16.471 z"
         fill="#ffffff"
         id="path7" />
    </mask>
    <g
       mask="url(#mask3_525_76740)"
       id="g8" />
    <mask
       id="mask4_525_76740"
       maskUnits="userSpaceOnUse"
       x="168"
       y="73"
       width="61"
       height="77">
      <path
         d="m 168.688,85.3203 0.713,0.2673 c 3.836,-2.6709 13.648,-5.5199 28.367,15.5794 7.85,11.218 11.507,20.388 12.756,27.599 l 14.719,20.566 c 8.831,-13.087 -3.479,-41.131 -4.55,-43.535 -1.427,-3.116 -15.432,-29.0231 -29.972,-32.2281 -1.249,-0.2673 -2.409,-0.356 -3.569,-0.356 -9.455,-0.0893 -15.967,8.2796 -18.464,12.1074 z"
         fill="#ffffff"
         id="path9" />
    </mask>
    <g
       mask="url(#mask4_525_76740)"
       id="g10" />
    <mask
       id="mask5_525_76740"
       maskUnits="userSpaceOnUse"
       x="207"
       y="109"
       width="22"
       height="41">
      <path
         d="m 207.133,117.638 c 1.784,4.096 2.855,7.835 3.39,11.129 l 14.718,20.565 c 7.226,-10.772 0.179,-31.694 -3.122,-40.062 z"
         fill="#ffffff"
         id="path11" />
    </mask>
    <g
       mask="url(#mask5_525_76740)"
       id="g12" />
    <mask
       id="mask6_525_76740"
       maskUnits="userSpaceOnUse"
       x="168"
       y="120"
       width="40"
       height="21">
      <path
         d="m 168.062,125.828 c 0,0 8.742,10.149 14.808,14.334 8.118,-4.541 16.503,-9.793 24.442,-15.847 l -31.489,-3.74 c -4.638,3.473 -7.761,5.253 -7.761,5.253 z"
         fill="#ffffff"
         id="path13" />
    </mask>
    <g
       mask="url(#mask6_525_76740)"
       id="g14" />
    <mask
       id="mask7_525_76740"
       maskUnits="userSpaceOnUse"
       x="133"
       y="14"
       width="83"
       height="63">
      <path
         d="m 167.616,16.8572 c -12.043,3.472 -25.959,12.553 -31.757,26.6194 -3.39,8.1907 -4.282,18.9633 0.357,30.2699 4.103,10.0598 1.606,-6.8554 1.606,-6.8554 -0.357,-2.4036 -2.409,-20.1204 16.413,-31.8721 8.742,-5.4308 19.714,-8.9919 32.649,-7.9236 4.906,0.4452 9.812,1.3355 14.629,3.3831 12.667,5.5198 13.649,13.9775 14.005,17.5386 0,0 0.803,-2.8489 -0.089,-8.2797 -2.141,-13.7993 -14.362,-25.1059 -33.006,-25.1059 -4.46,0 -9.455,0.7122 -14.807,2.2257 z"
         fill="#ffffff"
         id="path15" />
    </mask>
    <g
       mask="url(#mask7_525_76740)"
       id="g16" />
    <mask
       id="mask8_525_76740"
       maskUnits="userSpaceOnUse"
       x="133"
       y="15"
       width="39"
       height="47">
      <path
         d="m 167.615,16.8585 c -12.042,3.4721 -25.958,12.553 -31.756,26.6195 -1.962,4.8075 -3.122,10.5946 -2.766,16.7373 l 4.461,1.5135 c 0.267,-6.6774 3.033,-18.3398 16.681,-26.7976 3.122,-1.9586 6.512,-3.6501 10.169,-4.9856 l 6.691,-14.0664 c -1.16,0.3561 -2.32,0.6232 -3.48,0.9793 z"
         fill="#ffffff"
         id="path17" />
    </mask>
    <g
       mask="url(#mask8_525_76740)"
       id="g18" />
    <mask
       id="mask9_525_76740"
       maskUnits="userSpaceOnUse"
       x="112"
       y="89"
       width="84"
       height="105">
      <path
         d="m 112.041,101.612 c 0.089,4.095 0.981,8.101 2.944,11.751 1.694,3.828 4.103,8.547 6.958,13.621 6.244,10.417 12.578,19.053 16.502,23.949 12.756,15.491 32.114,37.748 54.237,42.199 5.352,-1.246 0.446,-11.84 -2.855,-18.517 -5.977,-11.93 -10.972,-32.228 -11.508,-34.365 -5.173,-4.541 -10.258,-9.793 -14.985,-15.58 -3.747,-4.718 -12.043,-15.224 -19.09,-30.8039 -1.338,-2.9382 -5.709,-4.3624 -10.883,-4.3624 -8.564,0 -19.179,4.0064 -21.32,12.1083 z"
         fill="#ffffff"
         id="path20" />
    </mask>
    <g
       mask="url(#mask9_525_76740)"
       id="g21" />
    <mask
       id="mask10_525_76740"
       maskUnits="userSpaceOnUse"
       x="105"
       y="21"
       width="53"
       height="77">
      <path
         d="m 116.501,48.2837 c -2.586,2.2257 -5.084,4.4514 -7.314,6.5882 -5.353,14.6003 -4.907,29.2012 -1.16,42.5554 l 27.832,-27.4204 c -0.803,-3.3831 -1.428,-6.8554 -1.784,-10.5058 -1.873,-15.5798 8.741,-30.2695 23.639,-37.9259 -9.099,4.0953 -24.621,12.375 -41.213,26.7085 z"
         fill="#ffffff"
         id="path23" />
    </mask>
    <g
       mask="url(#mask10_525_76740)"
       id="g24" />
    <mask
       id="mask11_525_76740"
       maskUnits="userSpaceOnUse"
       x="68"
       y="48"
       width="140"
       height="118">
      <path
         d="m 157.535,48.1051 c -8.564,0.2671 -16.592,5.9647 -25.69,13.3542 -8.386,6.8554 -19.269,17.7166 -28.813,28.4891 -14.8975,16.8266 -27.2972,35.6116 -32.7387,49.7666 -7.2252,18.696 4.8171,23.682 16.1463,25.018 10.0799,1.156 19.5354,1.156 31.4894,-0.268 0,0 -6.423,0.178 -6.958,-4.808 -1.071,-7.745 22.39,-38.638 33.719,-50.745 11.507,-12.3755 23.014,-21.9013 25.958,-24.3942 4.193,-3.3831 10.437,-14.5116 21.677,-10.4165 2.498,1.0682 6.423,2.849 14.094,10.5052 0.357,-0.7121 0.981,-1.8695 1.338,-2.6704 -1.338,-1.6915 -7.225,-9.437 -16.77,-17.6278 -9.456,-8.2796 -22.301,-16.2922 -32.738,-16.2922 -0.268,0.089 -0.535,0.089 -0.714,0.089 z"
         fill="#ffffff"
         id="path25" />
    </mask>
    <g
       mask="url(#mask11_525_76740)"
       id="g26" />
    <path
       d="m 44.5129,240.586 v 34.632 h 11.24 V 235.6 Z m -19.2681,18.785 c 0,7.478 -5.3523,7.567 -7.7608,7.567 h -6.2443 v -15.224 h 6.5119 c 5.7091,0.089 7.4932,2.938 7.4932,7.657 z m -0.6244,-22.703 c 0,5.164 -3.3898,6.856 -5.8875,6.856 h -7.4932 v -13.622 h 6.958 c 3.7466,0 6.4227,2.849 6.4227,6.766 z m 1.784,10.773 v -0.178 c 6.0659,-1.158 9.0989,-5.609 9.0989,-11.752 0,-11.396 -7.0472,-13.888 -15.6108,-13.888 H 0 v 53.505 h 19.8033 c 4.7278,0 16.592,-0.622 16.592,-14.155 0,-7.3 -2.0517,-12.375 -9.9909,-13.532 z m 29.3485,-18.607 v -7.211 h -11.24 v 12.196 z m 10.3474,46.384 h 28.01 v -8.903 H 77.3401 V 221.623 H 66.1003 Z m 43.1747,-45.316 h 16.681 v -8.279 H 98.1249 v 53.505 h 11.2391 v -23.325 h 15.879 v -8.19 h -15.879 v -13.711 z m 22.926,45.316 h 11.239 v -53.595 h -11.239 z m 46.921,0 h 14.808 v -53.595 h -10.526 v 37.036 h -0.179 l -14.272,-37.036 h -15.165 v 53.505 h 10.437 v -39.172 h 0.178 z m 59.142,-37.125 c 0.714,-11.218 -6.155,-17.361 -17.127,-17.361 -18.376,0 -19,13.711 -19,27.243 0,20.299 2.14,28.133 21.052,28.133 4.46,0 12.132,-1.158 15.165,-1.78 v -27.154 h -17.306 v 8.19 h 6.066 v 11.841 c -1.695,0.623 -3.747,1.069 -5.62,1.069 -6.422,0 -8.028,-2.939 -8.028,-19.765 0,-10.416 0,-19.764 6.958,-19.764 5.976,0 6.779,4.362 6.69,9.348 z m 9.01,37.125 h 29.883 v -8.191 h -18.643 v -15.669 h 16.681 v -8.19 h -16.681 v -13.177 h 18.019 v -8.368 h -29.259 z m 58.964,-38.282 c 0,3.383 -1.249,7.834 -5.709,7.834 h -4.996 v -14.868 h 4.996 c 3.479,0 5.709,1.87 5.709,7.034 z m 11.329,-1.247 c 0,-9.081 -4.906,-13.977 -12.578,-13.977 h -20.695 v 53.506 h 11.239 v -22.169 h 2.855 c 8.653,0 8.028,5.432 8.028,11.752 0,3.473 -0.267,7.122 1.16,10.417 h 10.972 c -1.07,-2.226 -1.249,-12.286 -1.249,-15.759 0,-9.615 -7.314,-10.237 -9.723,-10.505 v -0.178 c 7.315,-1.157 9.991,-6.321 9.991,-13.087 z"
       fill="#484847"
       id="path27" />
  </g>
  <defs
     id="defs202">
    <clipPath
       id="clip0_525_76740">
      <rect
         width="321"
         height="278"
         fill="#ffffff"
         id="rect202"
         x="0"
         y="0" />
    </clipPath>
  </defs>
</svg>
