<svg id="Ebene_1" data-name="Ebene 1" xmlns="http://www.w3.org/2000/svg" viewBox="0 0 186.93 57.83">
  <title>Icon-Logo-black</title>
  <g id="Logo_dibt" data-name="Logo dibt">
    <path d="M163.62,34c3.37-.76,4.46-4,4.46-7.48,0-4.12-2.19-7.4-6.56-7.4h-5.3v31.1H162c4.63,0,6.48-4.54,6.48-8.57,0-3.45-1.09-6.47-4.88-7.56ZM128.1,50.26h5c7.24,0,9.17-8.15,9.17-16.56s-3.87-14.54-8.92-14.54h-5.3ZM176,29.59h3.28V27.91H176V20.42h-1.6c-.59,4.12-1.68,6.89-3.45,7.65v1.51h1.43v17.9c0,2.94,2.1,3.11,3.2,3.11,2.19,0,3.7-1.43,3.7-4.88V44.21h-1.68v.59c.08,3-.59,3.87-1.09,3.87a.58.58,0,0,1-.51-.59ZM151.08,19.16h-4.46v31.1h4.46ZM93.59,0h93.34V57.83H93.59Z" fill="#1d1d1d"/>
    <path d="M160.59,35.39V48.67h1.35c3,0,5-2.94,5-7,0-3.19-1.26-5.8-5-6.3a6.64,6.64,0,0,0-1.35,0" fill="#1d1d1d"/>
    <path d="M161.85,32.53c3.28-.25,4.54-2.61,4.54-5.8,0-3.53-1.6-5.8-5.22-5.8h-.59v11.6Z" fill="#1d1d1d"/>
    <path d="M133.32,21h-.84v27.4h.59c5.3,0,7.49-5.88,7.49-13.78S137.86,21,133.32,21" fill="#1d1d1d"/>
    <path d="M25.76,46.57h1.09c.84,0,1.94,0,1.94,1.18s-.93,1.18-1.77,1.18H25.76Zm0-3.53H27c.59,0,1.51,0,1.51,1.09s-.93,1.09-1.43,1.09H25.76Zm-1.68,7.23h3.11a5.77,5.77,0,0,0,2.19-.34,2.2,2.2,0,0,0,1.26-2,2.06,2.06,0,0,0-1.85-2.1,2.08,2.08,0,0,0,1-.59A1.75,1.75,0,0,0,30.3,44a2.11,2.11,0,0,0-1-1.85,4.8,4.8,0,0,0-2.1-.34H24.07Z" fill="#1d1d1d"/>
    <path d="M35.1,47.49a1.92,1.92,0,0,1-.34,1.43.77.77,0,0,1-.67.34.87.87,0,0,1-.93-.84c0-.67.84-1,1.94-.92m1.85,2.77a9.25,9.25,0,0,1-.17-1.51V46.4a2.31,2.31,0,0,0-.42-1.51,2.84,2.84,0,0,0-2.1-.76,3.1,3.1,0,0,0-1.85.5,1.73,1.73,0,0,0-.67,1.43H33.5a1.64,1.64,0,0,1,.08-.59,1,1,0,0,1,.67-.34c.17,0,.67.08.76.5a2.34,2.34,0,0,1,.08.84,6.14,6.14,0,0,0-2.36.34,2,2,0,0,0-1.26,1.85,1.85,1.85,0,0,0,.5,1.26,2,2,0,0,0,1.51.5,1.94,1.94,0,0,0,1.77-1,3.15,3.15,0,0,0,.08.84Z" fill="#1d1d1d"/>
    <path d="M38.3,44.3V48a2.89,2.89,0,0,0,.34,1.6,2.17,2.17,0,0,0,1.85.84,2,2,0,0,0,1.77-.92v.76H44a.76.76,0,0,1-.08-.42V44.3H42.08v3c0,1,0,1.85-1.09,1.85-.93,0-.93-.76-.93-1.34V44.3Z" fill="#1d1d1d"/>
    <path d="M49.07,49.09h-.59c-.76,0-.76-.34-.76-.92V45.47h1.43V44.3H47.72V42.53L46,43.2V44.3H44.78v1.18H46v3.28c0,.5,0,1.6,1.77,1.6a4.74,4.74,0,0,0,1.35-.17Z" fill="#1d1d1d"/>
    <path d="M51.59,46.65c.08-.67.42-1.34,1.18-1.34,1,0,1,1.09,1,1.34Zm4,1.09a3.66,3.66,0,0,0-.34-2.19,2.52,2.52,0,0,0-2.44-1.43,3,3,0,0,0-1.68.5,3.36,3.36,0,0,0-1.18,2.77,3.07,3.07,0,0,0,.76,2.35,2.84,2.84,0,0,0,2.1.76,3.15,3.15,0,0,0,2.1-.67,2.75,2.75,0,0,0,.59-1.34h-1.6a1,1,0,0,1-1.09.84c-1.18,0-1.18-1.18-1.18-1.6Z" fill="#1d1d1d"/>
    <path d="M61.61,46.4a2.22,2.22,0,0,0-2.44-2.19c-.76,0-2.78.34-2.78,3.11a3.75,3.75,0,0,0,.76,2.35,2.54,2.54,0,0,0,2,.76,2.3,2.3,0,0,0,2.44-2.35H59.93c-.08,1.09-.59,1.18-.84,1.18a.54.54,0,0,1-.42-.17,3.42,3.42,0,0,1-.5-1.85c0-.67.17-1.93.93-1.93s.76.92.84,1.09Z" fill="#1d1d1d"/>
    <path d="M62.7,50.26h1.77V46.65a1.11,1.11,0,0,1,1.09-1.26c1,0,1,1,1,1.34v3.53h1.68V46.65a3.21,3.21,0,0,0-.34-1.6,2.1,2.1,0,0,0-1.77-.84,1.71,1.71,0,0,0-1.68.92V41.77H62.7Z" fill="#1d1d1d"/>
    <path d="M69.77,50.26h1.77V46.82a2,2,0,0,1,.17-.92,1.16,1.16,0,0,1,.93-.5.8.8,0,0,1,.84.5,1,1,0,0,1,.17.67v3.7h1.77V47.07a6.1,6.1,0,0,0-.17-1.77,1.89,1.89,0,0,0-1.85-1.18,2,2,0,0,0-1.94,1.09V44.3H69.77v6Z" fill="#1d1d1d"/>
    <path d="M77,50.26H78.7v-6H77Zm-.08-7h1.85V41.77H76.93Z" fill="#1d1d1d"/>
    <path d="M77,50.26H78.7v-6H77Zm-.08-7h1.85V41.77H76.93Z" fill="#1d1d1d" stroke="#fff" stroke-linecap="round" stroke-linejoin="round" stroke-width="0.04" opacity="0"/>
    <polygon points="80.29 50.26 82.06 50.26 82.06 46.99 83.83 50.26 85.93 50.26 83.75 46.9 85.77 44.3 83.83 44.3 82.06 46.73 82.06 41.77 80.29 41.77 80.29 50.26" fill="#1d1d1d"/>
    <polygon points="80.29 50.26 82.06 50.26 82.06 46.99 83.83 50.26 85.93 50.26 83.75 46.9 85.77 44.3 83.83 44.3 82.06 46.73 82.06 41.77 80.29 41.77 80.29 50.26" fill="#1d1d1d" stroke="#fff" stroke-linecap="round" stroke-linejoin="round" stroke-width="0.04" opacity="0"/>
    <path d="M71.2,37.91H73V33.12h1.09V31.94H73v-.76c0-.25,0-.76.84-.76a.92.92,0,0,1,.42.08V29.25a5.75,5.75,0,0,0-1-.08c-1.68,0-2,.92-2,1.93v.84h-.93v1.18h.93Z" fill="#1d1d1d"/>
    <path d="M75,31.94v3.7a3.19,3.19,0,0,0,.34,1.6,2.42,2.42,0,0,0,1.85.84,1.88,1.88,0,0,0,1.68-1l.08.84h1.68v-.5c0-.08,0-.25-.08-1.51v-4H78.78v3c0,1,0,1.85-1.09,1.85-.93,0-.93-.84-.93-1.34V31.94Zm1.26-1.09h1.18V29.42H76.25Zm2,0h1.18V29.42H78.27Z" fill="#1d1d1d"/>
    <path d="M82.23,37.91H84V35c0-.76.08-1.68,1.85-1.51v-1.6a1.79,1.79,0,0,0-2,1.18V31.86H82.15c0,.42.08,1.26.08,1.51Z" fill="#1d1d1d"/>
    <rect x="46.21" y="16.89" width="1.77" height="8.57" fill="#1d1d1d"/>
    <rect x="46.21" y="16.89" width="1.77" height="8.57" fill="#1d1d1d" stroke="#fff" stroke-linecap="round" stroke-linejoin="round" stroke-width="0.04" opacity="0"/>
    <path d="M49.41,25.47h1.77V22a1.21,1.21,0,0,1,.25-.92.93.93,0,0,1,.84-.5,1,1,0,0,1,.93.5,1.85,1.85,0,0,1,.08.67v3.7H55V22.27a6.1,6.1,0,0,0-.17-1.77A1.89,1.89,0,0,0,53,19.33a2,2,0,0,0-1.94,1.09V19.5H49.41v6Z" fill="#1d1d1d"/>
    <path d="M56.22,23.79A1.55,1.55,0,0,0,56.64,25a2.81,2.81,0,0,0,2,.67c1.85,0,2.78-1,2.78-2,0-.84-.5-1.34-1.6-1.68l-1.09-.25c-.5-.17-.84-.25-.84-.67s.42-.59.84-.59a.75.75,0,0,1,.84.76h1.6c0-1.26-1-1.77-2.27-1.77-1.51,0-2.61.67-2.61,1.85a1.63,1.63,0,0,0,1.51,1.6l1.09.34c.67.17.84.42.84.67s-.34.67-.93.67c-.76,0-1-.42-1-.76Z" fill="#1d1d1d"/>
    <path d="M66.07,24.29h-.59c-.84,0-.84-.34-.84-.92V20.68h1.43V19.58H64.64V17.74L63,18.41v1.18H61.78v1.09H63V24c0,.5,0,1.68,1.77,1.68a5.84,5.84,0,0,0,1.35-.25Z" fill="#1d1d1d"/>
    <path d="M67.16,25.47h1.68v-6H67.16Zm-.08-7h1.85V17H67.08Z" fill="#1d1d1d"/>
    <path d="M67.16,25.47h1.68v-6H67.16Zm-.08-7h1.85V17H67.08Z" fill="#1d1d1d" stroke="#fff" stroke-linecap="round" stroke-linejoin="round" stroke-width="0.04" opacity="0"/>
    <path d="M73.9,24.29h-.59c-.76,0-.76-.34-.76-.92V20.68H74V19.58H72.55V17.74l-1.77.67v1.18H69.69v1.09h1.09V24c0,.5,0,1.68,1.77,1.68a4.63,4.63,0,0,0,1.35-.25Z" fill="#1d1d1d"/>
    <path d="M75,19.5v3.7a3.32,3.32,0,0,0,.34,1.68,2.38,2.38,0,0,0,1.85.76,1.85,1.85,0,0,0,1.68-.92l.08.76h1.68V25c0-.17,0-.34-.08-1.6v-4H78.78v3c0,1,0,1.85-1.09,1.85-.93,0-.93-.76-.93-1.26V19.5Z" fill="#1d1d1d"/>
    <path d="M85.76,24.29h-.59c-.84,0-.84-.34-.84-.92V20.68h1.43V19.58H84.33V17.74l-1.68.67v1.18H81.47v1.09h1.18V24c0,.5,0,1.68,1.77,1.68a5.84,5.84,0,0,0,1.35-.25Z" fill="#1d1d1d"/>
    <path d="M30.47,6a6.18,6.18,0,0,1,1.94.08c1.09.34,1.51,1.43,1.51,2.69a3.23,3.23,0,0,1-.76,2.35c-.5.59-1.18.59-2,.59h-.67Zm-1.85,7.14h2.61c.93,0,1.26-.08,1.6-.08,1.6-.34,3-1.68,3-4.29a4,4,0,0,0-1.51-3.36,5.06,5.06,0,0,0-2.95-.76l-2.78-.08Z" fill="#1d1d1d"/>
    <path d="M38.46,9.5c.08-.76.34-1.34,1.18-1.34,1,0,1,1,1,1.34Zm4,1.09a4.34,4.34,0,0,0-.34-2.19,2.54,2.54,0,0,0-2.44-1.51A3.92,3.92,0,0,0,38,7.4a3.28,3.28,0,0,0-1.18,2.86,3.19,3.19,0,0,0,.76,2.35,3.12,3.12,0,0,0,2.1.67,2.89,2.89,0,0,0,2.1-.67,2,2,0,0,0,.5-1.26h-1.6a1,1,0,0,1-1,.84c-1.18,0-1.18-1.26-1.18-1.6Z" fill="#1d1d1d"/>
    <path d="M43.51,7.14v3.7a2.65,2.65,0,0,0,.42,1.6,2.37,2.37,0,0,0,1.77.84,1.93,1.93,0,0,0,1.77-1l.08.84h1.68v-.42a11,11,0,0,1-.08-1.6v-4H47.39v3c0,1,0,1.85-1.18,1.85-.93,0-.93-.84-.93-1.34V7.14Z" fill="#1d1d1d"/>
    <path d="M54.29,11.85a4.75,4.75,0,0,1-.59.08c-.76,0-.76-.34-.76-.92V8.32h1.43V7.14H52.94V5.38L51.17,6V7.14H50.08V8.32h1.09V11.6c0,.5,0,1.6,1.77,1.6A4.19,4.19,0,0,0,54.29,13Z" fill="#1d1d1d"/>
    <path d="M55,11.35a1.58,1.58,0,0,0,.5,1.18,2.54,2.54,0,0,0,2,.76c1.85,0,2.69-1,2.69-2.1,0-.76-.5-1.34-1.6-1.6l-1-.34c-.59-.17-.84-.25-.84-.59s.34-.59.84-.59a.72.72,0,0,1,.84.67H60C59.93,7.57,59,7,57.74,7c-1.6,0-2.61.76-2.61,1.85,0,1.26,1,1.51,1.51,1.68l1.09.34c.67.17.84.34.84.67s-.34.67-.93.67c-.76,0-1-.42-1-.84Z" fill="#1d1d1d"/>
    <path d="M66.24,9.25A2.33,2.33,0,0,0,63.8,7a2.79,2.79,0,0,0-2.86,3.11,3.44,3.44,0,0,0,.76,2.35,2.52,2.52,0,0,0,2.1.84,2.71,2.71,0,0,0,1.68-.59,2.18,2.18,0,0,0,.76-1.77H64.47c0,1.09-.59,1.18-.76,1.18a.73.73,0,0,1-.5-.25,3,3,0,0,1-.42-1.77c0-.67.08-1.93.93-1.93.67,0,.76.84.76,1.09Z" fill="#1d1d1d"/>
    <path d="M67.25,13.11H69V9.41a1.09,1.09,0,0,1,1.18-1.18c.93,0,.93.92.93,1.26v3.61h1.77V9.5a2.7,2.7,0,0,0-.42-1.68,2.12,2.12,0,0,0-1.68-.76A2,2,0,0,0,69,8V4.54H67.25Z" fill="#1d1d1d"/>
    <path d="M75.83,9.5c0-.76.34-1.34,1.09-1.34,1,0,1,1,1,1.34Zm4,1.09a4.53,4.53,0,0,0-.42-2.19A2.43,2.43,0,0,0,77,6.89a3.32,3.32,0,0,0-1.68.5,3.36,3.36,0,0,0-1.26,2.86,3.59,3.59,0,0,0,.76,2.35,3.25,3.25,0,0,0,2.1.67,2.66,2.66,0,0,0,2.1-.67,1.81,1.81,0,0,0,.59-1.26H78a1,1,0,0,1-1,.84c-1.26,0-1.26-1.26-1.26-1.6Z" fill="#1d1d1d"/>
    <path d="M80.46,11.35a1.58,1.58,0,0,0,.5,1.18,2.54,2.54,0,0,0,2,.76c1.85,0,2.69-1,2.69-2.1,0-.76-.51-1.34-1.6-1.6l-1-.34c-.5-.17-.84-.25-.84-.59s.34-.59.84-.59a.72.72,0,0,1,.84.67h1.6C85.43,7.57,84.5,7,83.24,7c-1.51,0-2.61.76-2.61,1.85,0,1.26,1,1.51,1.51,1.68l1.09.34c.67.17.84.34.84.67s-.34.67-.93.67c-.76,0-1-.42-1-.84Z" fill="#1d1d1d"/>
    <rect width="1.94" height="57.83" fill="#1d1d1d"/>
  </g>
</svg>
